<svg width="236" height="132" viewBox="0 0 236 132" fill="none" xmlns="http://www.w3.org/2000/svg">
<g clip-path="url(#clip0_16_1998)">
<path d="M9.91821e-05 17.9366L72.1243 0L58.8236 20.5368L9.91821e-05 17.9366Z" fill="white"/>
<path d="M58.8236 20.5368L71.6257 43.7237L9.15527e-05 17.9366L58.8236 20.5368Z" fill="#ACEAFD"/>
<path d="M71.6257 43.7237L54.9761 31.3828L9.15527e-05 17.9366L71.6257 43.7237Z" fill="#9AB7BE"/>
<path d="M3.43323e-05 17.9366L48.9537 56.7631L54.9761 31.3828L3.43323e-05 17.9366Z" fill="white"/>
<path d="M192.395 132C194.435 131.973 196.543 131.885 198.663 131.735C198.775 131.733 198.886 131.707 198.989 131.66C199.091 131.613 199.183 131.546 199.259 131.462C199.334 131.378 199.392 131.28 199.43 131.173C199.467 131.066 199.482 130.952 199.474 130.839C199.466 130.726 199.436 130.616 199.385 130.515C199.333 130.414 199.262 130.324 199.176 130.252C199.089 130.179 198.989 130.125 198.881 130.093C198.774 130.061 198.661 130.051 198.549 130.064C196.456 130.212 194.382 130.3 192.374 130.325C192.161 130.336 191.96 130.43 191.814 130.587C191.667 130.744 191.586 130.952 191.588 131.168C191.589 131.383 191.673 131.59 191.822 131.745C191.97 131.9 192.172 131.991 192.386 132H192.395ZM186.171 131.885C186.391 131.89 186.604 131.808 186.764 131.655C186.923 131.502 187.016 131.291 187.022 131.069C187.027 130.847 186.945 130.632 186.793 130.471C186.642 130.311 186.433 130.217 186.213 130.211C184.131 130.106 182.065 129.926 180.071 129.678C179.852 129.651 179.632 129.713 179.459 129.849C179.285 129.986 179.173 130.187 179.146 130.407C179.119 130.628 179.18 130.85 179.316 131.025C179.452 131.199 179.65 131.313 179.869 131.34C181.901 131.593 184.008 131.775 186.129 131.885H186.171ZM204.819 131.14C204.852 131.142 204.886 131.142 204.919 131.14C206.942 130.897 209.028 130.593 211.121 130.244C211.338 130.208 211.532 130.086 211.66 129.905C211.788 129.724 211.84 129.5 211.804 129.281C211.768 129.062 211.647 128.866 211.468 128.737C211.289 128.608 211.066 128.555 210.849 128.592C208.78 128.937 206.72 129.237 204.722 129.478C204.511 129.503 204.319 129.608 204.183 129.772C204.047 129.936 203.978 130.145 203.991 130.358C204.003 130.571 204.096 130.772 204.25 130.918C204.403 131.064 204.607 131.146 204.819 131.146V131.14ZM173.833 130.334C174.038 130.332 174.234 130.254 174.385 130.115C174.536 129.976 174.631 129.786 174.651 129.581C174.672 129.376 174.617 129.17 174.497 129.003C174.377 128.837 174.2 128.72 174.001 128.676C171.969 128.256 169.963 127.746 168.037 127.162C167.828 127.102 167.603 127.127 167.412 127.233C167.221 127.338 167.078 127.516 167.015 127.726C166.953 127.937 166.975 128.163 167.076 128.358C167.178 128.552 167.352 128.698 167.56 128.765C169.531 129.363 171.586 129.885 173.666 130.317C173.719 130.328 173.773 130.334 173.828 130.334H173.833ZM217.099 129.097C217.156 129.096 217.213 129.091 217.269 129.079C219.255 128.663 221.31 128.187 223.371 127.686C223.477 127.66 223.577 127.613 223.664 127.548C223.752 127.483 223.826 127.401 223.883 127.307C223.939 127.213 223.977 127.109 223.993 127C224.01 126.891 224.005 126.781 223.979 126.674C223.953 126.567 223.906 126.467 223.842 126.378C223.777 126.289 223.696 126.215 223.603 126.158C223.51 126.101 223.406 126.063 223.299 126.046C223.191 126.03 223.081 126.035 222.975 126.061C220.935 126.564 218.901 127.02 216.932 127.439C216.732 127.482 216.556 127.599 216.436 127.766C216.316 127.932 216.261 128.138 216.281 128.343C216.302 128.548 216.397 128.738 216.548 128.877C216.699 129.016 216.895 129.094 217.099 129.097ZM161.918 126.704C162.11 126.703 162.297 126.636 162.445 126.513C162.594 126.389 162.695 126.218 162.733 126.027C162.77 125.837 162.74 125.64 162.649 125.469C162.559 125.298 162.412 125.164 162.234 125.09C160.341 124.305 158.49 123.421 156.689 122.442C156.495 122.336 156.268 122.312 156.057 122.376C155.846 122.439 155.668 122.585 155.563 122.78C155.459 122.976 155.435 123.205 155.498 123.418C155.561 123.631 155.705 123.81 155.899 123.915C157.754 124.923 159.659 125.832 161.608 126.64C161.709 126.682 161.818 126.704 161.927 126.704H161.918ZM229.188 126.128C229.263 126.128 229.338 126.118 229.411 126.097C231.374 125.543 233.391 124.946 235.406 124.311C235.609 124.238 235.775 124.09 235.871 123.896C235.968 123.702 235.986 123.479 235.922 123.272C235.858 123.065 235.718 122.891 235.53 122.786C235.342 122.682 235.121 122.654 234.914 122.71C232.914 123.338 230.918 123.935 228.963 124.483C228.771 124.539 228.605 124.663 228.496 124.832C228.387 125.001 228.342 125.204 228.369 125.404C228.397 125.604 228.494 125.787 228.645 125.92C228.795 126.053 228.988 126.127 229.188 126.128ZM150.982 120.743C151.16 120.744 151.332 120.687 151.475 120.582C151.618 120.476 151.724 120.327 151.777 120.157C151.83 119.986 151.828 119.803 151.77 119.634C151.712 119.465 151.602 119.319 151.456 119.218C149.774 118.043 148.155 116.778 146.608 115.428C146.525 115.356 146.43 115.301 146.326 115.266C146.223 115.232 146.113 115.218 146.005 115.226C145.896 115.234 145.79 115.263 145.692 115.313C145.595 115.362 145.508 115.43 145.437 115.513C145.365 115.596 145.311 115.693 145.277 115.797C145.242 115.902 145.229 116.012 145.236 116.121C145.244 116.231 145.273 116.338 145.322 116.436C145.371 116.535 145.439 116.622 145.521 116.694C147.114 118.085 148.78 119.387 150.512 120.596C150.655 120.691 150.824 120.739 150.996 120.734L150.982 120.743ZM141.575 112.549C141.74 112.553 141.902 112.507 142.041 112.418C142.18 112.329 142.29 112.199 142.356 112.047C142.422 111.894 142.442 111.726 142.413 111.562C142.383 111.398 142.306 111.247 142.191 111.127C141.953 110.872 141.721 110.62 141.497 110.373C140.308 109.064 139.202 107.735 138.215 106.424C138.148 106.337 138.066 106.263 137.972 106.208C137.877 106.153 137.773 106.117 137.665 106.102C137.557 106.087 137.447 106.094 137.342 106.122C137.237 106.15 137.138 106.199 137.051 106.266C136.964 106.332 136.891 106.416 136.837 106.511C136.782 106.606 136.746 106.711 136.731 106.82C136.717 106.929 136.724 107.039 136.752 107.146C136.78 107.252 136.828 107.352 136.894 107.439C137.912 108.782 139.048 110.156 140.271 111.505C140.504 111.759 140.74 112.016 140.983 112.273C141.061 112.357 141.154 112.424 141.258 112.47C141.362 112.516 141.475 112.539 141.588 112.54L141.575 112.549ZM134.104 102.561C134.25 102.561 134.393 102.523 134.519 102.45C134.646 102.377 134.75 102.271 134.824 102.144C134.897 102.017 134.935 101.873 134.936 101.726C134.936 101.58 134.898 101.435 134.826 101.308C133.815 99.5187 132.909 97.6714 132.112 95.7756C132.075 95.6667 132.015 95.5667 131.938 95.482C131.86 95.3972 131.766 95.3295 131.661 95.2831C131.557 95.2367 131.444 95.2126 131.329 95.2122C131.215 95.2119 131.102 95.2353 130.997 95.2811C130.892 95.3269 130.797 95.394 130.719 95.4783C130.641 95.5626 130.581 95.6622 130.543 95.7709C130.505 95.8797 130.489 95.9952 130.497 96.1102C130.505 96.2253 130.537 96.3374 130.59 96.4396C131.413 98.3928 132.346 100.296 133.387 102.141C133.462 102.268 133.569 102.374 133.697 102.446C133.826 102.518 133.971 102.554 134.118 102.551L134.104 102.561ZM129.062 91.1106C129.164 91.1111 129.266 91.0923 129.361 91.055C129.462 91.0155 129.555 90.9561 129.634 90.8803C129.713 90.8045 129.777 90.7138 129.821 90.6133C129.865 90.5127 129.889 90.4044 129.892 90.2945C129.895 90.1846 129.876 90.0752 129.836 89.9727C129.1 88.0537 128.366 86.1501 127.481 84.1275C127.392 83.9239 127.227 83.7643 127.021 83.6837C126.815 83.603 126.587 83.6081 126.385 83.6977C126.183 83.7872 126.025 83.954 125.945 84.1613C125.865 84.3686 125.87 84.5994 125.959 84.803C126.83 86.7929 127.557 88.6678 128.286 90.5752C128.346 90.7332 128.453 90.869 128.591 90.9646C128.73 91.0602 128.894 91.1111 129.062 91.1106ZM123.968 79.6832C124.113 79.6829 124.255 79.6448 124.38 79.5724C124.505 79.5 124.61 79.396 124.683 79.2704C124.757 79.1449 124.796 79.0023 124.798 78.8566C124.8 78.711 124.765 78.5673 124.695 78.4397C123.687 76.6032 122.602 74.8359 121.396 73.0378C121.334 72.9468 121.256 72.8689 121.165 72.8085C121.074 72.7481 120.972 72.7063 120.865 72.6856C120.758 72.665 120.648 72.6658 120.541 72.688C120.434 72.7102 120.333 72.7535 120.242 72.8152C120.152 72.8769 120.075 72.956 120.015 73.0478C119.955 73.1397 119.914 73.2425 119.893 73.3505C119.873 73.4585 119.874 73.5695 119.896 73.6772C119.918 73.7849 119.961 73.8871 120.022 73.9781C121.205 75.7359 122.259 77.4591 123.241 79.2514C123.313 79.3816 123.418 79.4903 123.545 79.5662C123.672 79.6421 123.817 79.6824 123.964 79.6832H123.968ZM117.013 69.3035C117.201 69.3041 117.384 69.2397 117.531 69.1212C117.703 68.9822 117.813 68.7802 117.838 68.5594C117.862 68.3386 117.799 68.1169 117.662 67.9429C116.416 66.3694 115.048 64.7498 113.596 63.1302C113.448 62.9655 113.242 62.8668 113.022 62.8556C112.802 62.8444 112.587 62.9218 112.424 63.0707C112.261 63.2195 112.163 63.4277 112.152 63.6494C112.141 63.8711 112.217 64.0881 112.365 64.2528C113.792 65.8474 115.139 67.4402 116.361 68.9888C116.438 69.0871 116.537 69.1665 116.649 69.221C116.762 69.2755 116.885 69.3037 117.01 69.3035H117.013ZM108.641 60.031C108.809 60.0334 108.974 59.9841 109.114 59.8897C109.254 59.7952 109.362 59.6602 109.424 59.5023C109.486 59.3445 109.499 59.1714 109.461 59.0061C109.423 58.8407 109.336 58.6909 109.212 58.5765C107.656 57.14 106.02 55.7945 104.312 54.5466C104.134 54.4161 103.912 54.3622 103.694 54.397C103.477 54.4317 103.282 54.5521 103.152 54.7318C103.023 54.9115 102.97 55.1356 103.004 55.355C103.038 55.5743 103.158 55.7709 103.336 55.9014C104.994 57.1103 106.583 58.4141 108.093 59.8065C108.24 59.945 108.432 60.0248 108.633 60.031H108.641ZM98.598 52.6372C98.7808 52.6381 98.9587 52.578 99.1041 52.4664C99.2496 52.3548 99.3544 52.1979 99.4024 52.0201C99.4503 51.8422 99.4387 51.6533 99.3693 51.4828C99.2999 51.3123 99.1765 51.1697 99.0185 51.0771C97.2622 50.0371 95.3918 49.0353 93.4566 48.0989C93.2597 48.0146 93.0382 48.01 92.8381 48.0861C92.6379 48.1622 92.4746 48.3132 92.382 48.5077C92.2894 48.7021 92.2746 48.9251 92.3408 49.1302C92.407 49.3353 92.549 49.5069 92.7373 49.6091C94.6401 50.5264 96.4611 51.5051 98.1794 52.5221C98.3042 52.5957 98.4458 52.6354 98.5904 52.6372H98.598ZM87.3885 47.1816C87.5818 47.1813 87.7689 47.1132 87.9177 46.9888C88.0666 46.8645 88.1678 46.6918 88.2041 46.5004C88.2403 46.3089 88.2093 46.1107 88.1164 45.9398C88.0235 45.7689 87.8744 45.636 87.6949 45.5639C85.7921 44.8059 83.8036 44.0844 81.7829 43.4224C81.5734 43.3537 81.3455 43.3717 81.1492 43.4724C80.953 43.5732 80.8044 43.7485 80.7363 43.9597C80.6682 44.1709 80.686 44.4007 80.7859 44.5987C80.8859 44.7966 81.0597 44.9464 81.2691 45.0151C83.2575 45.6676 85.2136 46.3757 87.0841 47.126C87.1787 47.163 87.2794 47.1818 87.3809 47.1816H87.3885ZM75.5492 43.2842C75.7513 43.2849 75.9466 43.2111 76.0986 43.0769C76.2506 42.9426 76.3488 42.757 76.3747 42.5549C76.4006 42.3528 76.3525 42.1481 76.2394 41.9792C76.1263 41.8104 75.956 41.6889 75.7605 41.6377C74.9422 41.419 74.1595 41.2188 73.4124 41.0371C73.3064 41.0111 73.1964 41.0065 73.0887 41.0234C72.981 41.0403 72.8776 41.0784 72.7845 41.1356C72.6914 41.1928 72.6104 41.268 72.546 41.3568C72.4817 41.4455 72.4353 41.5462 72.4096 41.6531C72.3839 41.7599 72.3793 41.8708 72.396 41.9795C72.4128 42.0881 72.4506 42.1924 72.5073 42.2863C72.564 42.3802 72.6385 42.4619 72.7266 42.5268C72.8146 42.5917 72.9144 42.6384 73.0204 42.6644C73.7568 42.8448 74.5312 43.0482 75.3361 43.2554C75.4032 43.2737 75.4722 43.2834 75.5416 43.2842H75.5492Z" fill="#9AB7BE"/>
</g>
<defs>
<clipPath id="clip0_16_1998">
<rect width="236" height="132" fill="white" transform="matrix(-1 0 0 1 236 0)"/>
</clipPath>
</defs>
</svg>
